<?xml version="1.0" standalone="no"?>
<!DOCTYPE svg PUBLIC "-//W3C//DTD SVG 20010904//EN"
 "http://www.w3.org/TR/2001/REC-SVG-20010904/DTD/svg10.dtd">
<svg version="1.0" xmlns="http://www.w3.org/2000/svg"
 width="672.000000pt" height="144.000000pt" viewBox="0 0 672.000000 144.000000"
 preserveAspectRatio="xMidYMid meet">

<g transform="translate(0.000000,144.000000) scale(0.100000,-0.100000)"
fill="#000000" stroke="none">
<path d="M200 1325 c0 -34 -1 -35 -40 -35 l-40 0 0 -45 0 -45 -40 0 -40 0 0
-560 0 -560 360 0 360 0 0 45 0 45 40 0 40 0 0 115 0 115 -80 0 -80 0 0 -80 0
-80 -200 0 -200 0 0 205 0 205 160 0 160 0 0 40 0 40 40 0 40 0 0 40 0 40
-200 0 -200 0 0 195 0 195 200 0 200 0 0 -160 0 -160 40 0 40 0 0 45 0 45 40
0 c39 0 40 1 40 35 0 34 1 35 40 35 l40 0 0 80 0 80 -40 0 -40 0 0 45 0 45
-40 0 c-39 0 -40 1 -40 35 l0 35 -280 0 -280 0 0 -35z"/>
<path d="M1160 1325 c0 -34 -1 -35 -40 -35 l-40 0 0 -45 0 -45 -40 0 -40 0 0
-480 0 -480 40 0 c39 0 40 -1 40 -35 0 -34 1 -35 40 -35 l40 0 0 -45 0 -45
280 0 280 0 0 45 0 45 40 0 40 0 0 115 0 115 -40 0 -40 0 0 45 0 45 -40 0 -40
0 0 -125 0 -125 -160 0 -160 0 0 45 0 45 -40 0 -40 0 0 400 0 400 40 0 c39 0
40 1 40 35 l0 35 160 0 160 0 0 -115 0 -115 40 0 c39 0 40 1 40 35 0 34 1 35
40 35 l40 0 0 160 0 160 -320 0 -320 0 0 -35z"/>
<path d="M1960 800 l0 -560 40 0 c39 0 40 -1 40 -35 0 -34 1 -35 40 -35 l40 0
0 -45 0 -45 280 0 280 0 0 45 0 45 40 0 40 0 0 80 0 80 -40 0 c-39 0 -40 1
-40 35 0 34 -1 35 -40 35 l-40 0 0 -80 0 -80 -200 0 -200 0 0 480 0 480 -40 0
-40 0 0 45 0 45 -40 0 c-39 0 -40 1 -40 35 0 34 -1 35 -40 35 l-40 0 0 -560z"/>
<path d="M3000 1325 c0 -34 -1 -35 -40 -35 l-40 0 0 -45 0 -45 80 0 80 0 0
-35 c0 -34 1 -35 40 -35 l40 0 0 -365 0 -365 -40 0 -40 0 0 -80 0 -80 -40 0
-40 0 0 -80 0 -80 280 0 280 0 0 80 0 80 -40 0 -40 0 0 80 0 80 -40 0 -40 0 0
365 0 365 40 0 c39 0 40 1 40 35 l0 34 78 3 77 3 3 43 3 42 -40 0 c-40 0 -41
1 -41 35 l0 35 -280 0 -280 0 0 -35z"/>
<path d="M3880 1325 c0 -34 -1 -35 -40 -35 l-40 0 0 -45 0 -45 -40 0 -40 0 0
-240 0 -240 -40 0 -40 0 0 -80 0 -80 40 0 40 0 0 -240 0 -240 80 0 80 0 0 80
0 80 40 0 40 0 0 160 0 160 240 0 240 0 0 45 0 45 40 0 c39 0 40 1 40 35 0 34
1 35 40 35 l40 0 0 240 0 240 -40 0 -40 0 0 45 0 45 -40 0 c-39 0 -40 1 -40
35 l0 35 -280 0 -280 0 0 -35z m480 -365 l0 -240 -200 0 -200 0 0 240 0 240
200 0 200 0 0 -240z"/>
<path d="M4840 1325 c0 -34 -1 -35 -40 -35 l-40 0 0 -45 0 -45 -40 0 -40 0 0
-160 0 -160 40 0 c39 0 40 -1 40 -35 0 -34 1 -35 40 -35 l40 0 0 -45 0 -45
240 0 240 0 0 -160 0 -160 -200 0 -200 0 0 80 0 80 -120 0 -120 0 0 -80 0 -80
40 0 c39 0 40 -1 40 -35 0 -34 1 -35 40 -35 l40 0 0 -45 0 -45 80 0 80 0 0
-35 0 -35 120 0 120 0 0 35 0 35 80 0 80 0 0 45 0 45 40 0 c39 0 40 1 40 35 0
34 1 35 40 35 l40 0 0 160 0 160 -40 0 -40 0 0 45 0 45 -40 0 c-39 0 -40 1
-40 35 l0 35 -240 0 -240 0 0 160 0 160 200 0 200 0 0 -80 0 -80 120 0 120 0
0 80 0 80 -40 0 -40 0 0 45 0 45 -40 0 c-39 0 -40 1 -40 35 l0 35 -280 0 -280
0 0 -35z"/>
<path d="M5640 800 l0 -560 40 0 c39 0 40 -1 40 -35 0 -34 1 -35 40 -35 l40 0
0 -45 0 -45 280 0 280 0 0 45 0 45 40 0 c39 0 40 1 40 35 0 34 1 35 40 35 l40
0 0 80 0 80 -40 0 -40 0 0 80 0 80 -40 0 -40 0 0 40 0 40 -40 0 -40 0 0 -200
0 -200 -200 0 -200 0 0 205 0 205 160 0 160 0 0 40 0 40 40 0 40 0 0 40 0 40
-200 0 -200 0 0 195 0 195 200 0 200 0 0 -80 0 -80 80 0 80 0 0 125 0 125 -40
0 c-39 0 -40 1 -40 35 l0 35 -360 0 -360 0 0 -560z"/>
</g>
</svg>
